<?xml version="1.0" encoding="UTF-8" standalone="no"?>
<svg
   version="1.1"
   width="200"
   height="150"
   viewBox="0 0 200 150"
   xml:space="preserve"
   id="svg37"
   sodipodi:docname="Car1.svg"
   inkscape:version="1.3.2 (091e20e, 2023-11-25, custom)"
   xmlns:inkscape="http://www.inkscape.org/namespaces/inkscape"
   xmlns:sodipodi="http://sodipodi.sourceforge.net/DTD/sodipodi-0.dtd"
   xmlns="http://www.w3.org/2000/svg"
   xmlns:svg="http://www.w3.org/2000/svg"><sodipodi:namedview
   id="namedview37"
   pagecolor="#ffffff"
   bordercolor="#000000"
   borderopacity="0.25"
   inkscape:showpageshadow="2"
   inkscape:pageopacity="0.0"
   inkscape:pagecheckerboard="0"
   inkscape:deskcolor="#d1d1d1"
   inkscape:zoom="4.8578236"
   inkscape:cx="84.91457"
   inkscape:cy="73.18092"
   inkscape:window-width="1920"
   inkscape:window-height="1017"
   inkscape:window-x="-8"
   inkscape:window-y="-8"
   inkscape:window-maximized="1"
   inkscape:current-layer="svg37" />
<desc
   id="desc1">Created with Fabric.js 5.3.0</desc>
<defs
   id="defs1">
</defs>
<g
   transform="matrix(0.25045191,0,0,0.48101989,26.157125,93.24109)"
   id="thPmz3BwWpvxYmQhGMtNQ"
   style="fill:#000000;fill-opacity:1">
<path
   style="opacity:1;fill:#000000;fill-opacity:1;fill-rule:nonzero;stroke:#ee43d5;stroke-width:0;stroke-linecap:butt;stroke-linejoin:miter;stroke-miterlimit:4;stroke-dasharray:none;stroke-dashoffset:0"
   transform="translate(5e-6)"
   d="m -45.77969,-26.35701 c 0,-10.72685 16.70128,-19.42268 37.30334,-19.42268 H 8.47634 v 0 c 20.60207,0 37.30334,8.69583 37.30334,19.42268 v 52.71402 0 c 0,10.72685 -16.70128,19.42268 -37.30334,19.42268 H -8.47635 v 0 c -20.60207,0 -37.30334,-8.69583 -37.30334,-19.42268 z"
   stroke-linecap="round"
   id="path1" />
</g>
<g
   transform="matrix(0.25045191,0,0,0.48101989,175.1354,93.24109)"
   id="A5g2e4xDHFh6D4KjqY0Cf"
   style="fill:#000000;fill-opacity:1">
<path
   style="opacity:1;fill:#000000;fill-opacity:1;fill-rule:nonzero;stroke:#ee43d5;stroke-width:0;stroke-linecap:butt;stroke-linejoin:miter;stroke-miterlimit:4;stroke-dasharray:none;stroke-dashoffset:0"
   transform="translate(5e-6)"
   d="m -45.77969,-26.35701 c 0,-10.72685 16.70128,-19.42268 37.30334,-19.42268 H 8.47634 v 0 c 20.60207,0 37.30334,8.69583 37.30334,19.42268 v 52.71402 0 c 0,10.72685 -16.70128,19.42268 -37.30334,19.42268 H -8.47635 v 0 c -20.60207,0 -37.30334,-8.69583 -37.30334,-19.42268 z"
   stroke-linecap="round"
   id="path2" />
</g>





<g
   id="groupGlass"
   inkscape:label="groupGlass"
   style="fill:#99f8ff;fill-opacity:1"
   transform="translate(0.20585352,20.58535)"><g
     transform="matrix(1.0435496,0,0,0.34588798,100,21.330908)"
     id="s3mH8pX2xpoxkPXGFr4TI"
     style="fill:#99f8ff;fill-opacity:1">
<path
   style="opacity:1;fill:#99f8ff;fill-opacity:1;fill-rule:nonzero;stroke:#000000;stroke-width:1;stroke-linecap:butt;stroke-linejoin:miter;stroke-miterlimit:4;stroke-dasharray:none;stroke-dashoffset:0"
   transform="translate(5e-6)"
   d="M -45.77969,-45.77969 H 45.77968 V 45.77968 H -45.77969 Z"
   stroke-linecap="round"
   id="path3" />
</g><g
     transform="matrix(-0.38231809,0,0,0.39097884,36.734606,21.330908)"
     id="YM3Qsfejlf2WOrBbJJG2I"
     style="fill:#99f8ff;fill-opacity:1">
<path
   style="opacity:1;fill:#99f8ff;fill-opacity:1;fill-rule:nonzero;stroke:#000000;stroke-width:1;stroke-linecap:butt;stroke-linejoin:miter;stroke-miterlimit:4;stroke-dasharray:none;stroke-dashoffset:0"
   transform="translate(-40,-40)"
   d="M 0,0 80,80 H 0 Z"
   stroke-linecap="round"
   id="path7" />
</g><g
     transform="matrix(0.39291314,0,0,0.39097884,163.68636,21.330908)"
     id="Fw3LgErt-gAqYlulPRykI"
     style="fill:#99f8ff;fill-opacity:1">
<path
   style="opacity:1;fill:#99f8ff;fill-opacity:1;fill-rule:nonzero;stroke:#000000;stroke-width:1;stroke-linecap:butt;stroke-linejoin:miter;stroke-miterlimit:4;stroke-dasharray:none;stroke-dashoffset:0"
   transform="translate(-40,-40)"
   d="M 0,0 80,80 H 0 Z"
   stroke-linecap="round"
   id="path8" />
</g></g><g
   transform="matrix(0.67222137,0,0,0.67222137,124.71754,67.02054)"
   id="CXKlWpA6KBxZ8rdr1wIhb"
   style="fill:#000000;fill-opacity:1">
<path
   style="opacity:1;fill:#000000;fill-opacity:1;fill-rule:nonzero;stroke:#d1550f;stroke-width:0;stroke-linecap:butt;stroke-linejoin:miter;stroke-miterlimit:4;stroke-dasharray:none;stroke-dashoffset:0"
   d="M 0,-24.27184 C 13.39806,-24.27184 24.27184,-13.39805 24.27184,0 24.27184,13.39806 13.39805,24.27184 0,24.27184 -13.39806,24.27184 -24.27184,13.39805 -24.27184,0 -24.27184,-13.39806 -13.39805,-24.27184 0,-24.27184 Z"
   stroke-linecap="round"
   id="path5" />
</g>
<g
   id="groupBodyMain"
   inkscape:label="groupBodyMain"
   style="fill:#020202;fill-opacity:1"
   transform="translate(0.20585352,20.58535)"><g
     transform="matrix(0.34,0,0,0.19095459,13.358189,41.50925)"
     id="DbjAwEnIsLX8wA6-miuUn"
     style="fill:#020202;fill-opacity:1">
<path
   style="opacity:1;fill:#020202;fill-opacity:1;fill-rule:nonzero;stroke:#15ebfd;stroke-width:0;stroke-linecap:butt;stroke-linejoin:miter;stroke-miterlimit:4;stroke-dasharray:none;stroke-dashoffset:0"
   d="M -24.27184,-24.27184 H 24.27185 V 24.27185 H -24.27184 Z"
   stroke-linecap="round"
   id="path4" />
</g><g
     transform="matrix(0.34,0,0,0.19095459,186.78737,41.536634)"
     id="QHiXUXBDfQndGKnPsQb49"
     style="fill:#020202;fill-opacity:1">
<path
   style="opacity:1;fill:#020202;fill-opacity:1;fill-rule:nonzero;stroke:#15ebfd;stroke-width:0;stroke-linecap:butt;stroke-linejoin:miter;stroke-miterlimit:4;stroke-dasharray:none;stroke-dashoffset:0"
   transform="translate(-5e-6)"
   d="M -24.27184,-24.27184 H 24.27185 V 24.27185 H -24.27184 Z"
   stroke-linecap="round"
   id="path6" />
</g><g
     transform="matrix(1.7218569,0,0,0.47125368,100,58.739396)"
     id="PXXz4iwM78P5DGV7v3Bnz"
     style="fill:#020202;fill-opacity:1">
<path
   style="opacity:1;fill:#020202;fill-opacity:1;fill-rule:nonzero;stroke:#11ad0e;stroke-width:0;stroke-linecap:butt;stroke-linejoin:miter;stroke-miterlimit:4;stroke-dasharray:none;stroke-dashoffset:0"
   d="M -45.77969,-45.77969 H 45.77968 V 45.77968 H -45.77969 Z"
   stroke-linecap="round"
   id="path9" />
</g></g>
<g
   id="groupGrill"
   inkscape:label="groupGrill"
   style="fill:#fcfcfc;fill-opacity:1"
   transform="translate(0.20585352,20.58535)"><g
     transform="matrix(1.7961804,0,0,0.30529122,100,62.751244)"
     id="pEsyqxEm-asGye_ugZsI2"
     style="fill:#fcfcfc;fill-opacity:1">
<path
   style="opacity:1;fill:#fcfcfc;fill-opacity:1;fill-rule:nonzero;stroke:#000000;stroke-width:0;stroke-linecap:butt;stroke-linejoin:miter;stroke-miterlimit:4;stroke-dasharray:none;stroke-dashoffset:0"
   d="m -24.27184,8.70481 c 0,-18.2125 2.50942,-32.97665 5.60494,-32.97665 h 37.33381 v 0 c 3.09552,0 5.60494,14.76415 5.60494,32.97665 v 0 0 c 0,8.59744 -1.1846,15.56704 -2.64588,15.56704 h -43.25193 v 0 c -1.46128,0 -2.64588,-6.9696 -2.64588,-15.56704 z"
   stroke-linecap="round"
   id="path10" />
</g></g>
























<g
   id="groupBodyGrill"
   inkscape:label="groupBodyGrill"
   style="fill:#020202;fill-opacity:1"
   transform="translate(0.20585352,20.58535)"><g
     transform="matrix(1,0,0,1.25728,59.504646,62.751244)"
     id="cdvjGsoYNNVLbh0MAr2S3"
     style="fill:#020202;fill-opacity:1">
<path
   style="opacity:1;fill:#020202;fill-opacity:1;fill-rule:nonzero;stroke:#000000;stroke-width:1;stroke-linecap:butt;stroke-linejoin:miter;stroke-miterlimit:4;stroke-dasharray:none;stroke-dashoffset:0"
   d="M 0,-6.06796 V 6.06796"
   stroke-linecap="round"
   id="path11" />
</g><g
     transform="matrix(1,0,0,1.25728,63.589153,62.751245)"
     id="gYjp4KCmEF0n8b1k-6VX7"
     style="fill:#020202;fill-opacity:1">
<path
   style="opacity:1;fill:#020202;fill-opacity:1;fill-rule:nonzero;stroke:#000000;stroke-width:1;stroke-linecap:butt;stroke-linejoin:miter;stroke-miterlimit:4;stroke-dasharray:none;stroke-dashoffset:0"
   d="M 0,-6.06796 V 6.06796"
   stroke-linecap="round"
   id="path12" />
</g><g
     transform="matrix(1,0,0,1.25728,67.67366,62.751245)"
     id="VCUo0fphIM9Q5qaLwGr2p"
     style="fill:#020202;fill-opacity:1">
<path
   style="opacity:1;fill:#020202;fill-opacity:1;fill-rule:nonzero;stroke:#000000;stroke-width:1;stroke-linecap:butt;stroke-linejoin:miter;stroke-miterlimit:4;stroke-dasharray:none;stroke-dashoffset:0"
   d="M 0,-6.06796 V 6.06796"
   stroke-linecap="round"
   id="path13" />
</g><g
     transform="matrix(1,0,0,1.25728,71.758168,62.751245)"
     id="3aWyAFDNlQEyOJPGl6x9X"
     style="fill:#020202;fill-opacity:1">
<path
   style="opacity:1;fill:#020202;fill-opacity:1;fill-rule:nonzero;stroke:#000000;stroke-width:1;stroke-linecap:butt;stroke-linejoin:miter;stroke-miterlimit:4;stroke-dasharray:none;stroke-dashoffset:0"
   d="M 0,-6.06796 V 6.06796"
   stroke-linecap="round"
   id="path14" />
</g><g
     transform="matrix(1,0,0,1.25728,75.98352,62.751245)"
     id="p2zCshMnLGTpLDszqRzhF"
     style="fill:#020202;fill-opacity:1">
<path
   style="opacity:1;fill:#020202;fill-opacity:1;fill-rule:nonzero;stroke:#000000;stroke-width:1;stroke-linecap:butt;stroke-linejoin:miter;stroke-miterlimit:4;stroke-dasharray:none;stroke-dashoffset:0"
   d="M 0,-6.06796 V 6.06796"
   stroke-linecap="round"
   id="path15" />
</g><g
     transform="matrix(1,0,0,1.25728,80.068027,62.751247)"
     id="Hk9Apk4JlRq3KkWLKhj3a"
     style="fill:#020202;fill-opacity:1">
<path
   style="opacity:1;fill:#020202;fill-opacity:1;fill-rule:nonzero;stroke:#000000;stroke-width:1;stroke-linecap:butt;stroke-linejoin:miter;stroke-miterlimit:4;stroke-dasharray:none;stroke-dashoffset:0"
   d="M 0,-6.06796 V 6.06796"
   stroke-linecap="round"
   id="path16" />
</g><g
     transform="matrix(1,0,0,1.25728,84.152534,62.751247)"
     id="gxMps6TdiRHDmO8iwQYqB"
     style="fill:#020202;fill-opacity:1">
<path
   style="opacity:1;fill:#020202;fill-opacity:1;fill-rule:nonzero;stroke:#000000;stroke-width:1;stroke-linecap:butt;stroke-linejoin:miter;stroke-miterlimit:4;stroke-dasharray:none;stroke-dashoffset:0"
   d="M 0,-6.06796 V 6.06796"
   stroke-linecap="round"
   id="path17" />
</g><g
     transform="matrix(1,0,0,1.25728,88.237041,62.751247)"
     id="MTGwlIxRD530b7DpQLUQm"
     style="fill:#020202;fill-opacity:1">
<path
   style="opacity:1;fill:#020202;fill-opacity:1;fill-rule:nonzero;stroke:#000000;stroke-width:1;stroke-linecap:butt;stroke-linejoin:miter;stroke-miterlimit:4;stroke-dasharray:none;stroke-dashoffset:0"
   d="M 0,-6.06796 V 6.06796"
   stroke-linecap="round"
   id="path18" />
</g><g
     transform="matrix(1,0,0,1.25728,91.758168,62.751247)"
     id="lL6P1zCNIreupHv_SPHOc"
     style="fill:#020202;fill-opacity:1">
<path
   style="opacity:1;fill:#020202;fill-opacity:1;fill-rule:nonzero;stroke:#000000;stroke-width:1;stroke-linecap:butt;stroke-linejoin:miter;stroke-miterlimit:4;stroke-dasharray:none;stroke-dashoffset:0"
   d="M 0,-6.06796 V 6.06796"
   stroke-linecap="round"
   id="path19" />
</g><g
     transform="matrix(1,0,0,1.25728,95.842675,62.751248)"
     id="HIWQ04DPdGJDIszz2zmMu"
     style="fill:#020202;fill-opacity:1">
<path
   style="opacity:1;fill:#020202;fill-opacity:1;fill-rule:nonzero;stroke:#000000;stroke-width:1;stroke-linecap:butt;stroke-linejoin:miter;stroke-miterlimit:4;stroke-dasharray:none;stroke-dashoffset:0"
   d="M 0,-6.06796 V 6.06796"
   stroke-linecap="round"
   id="path20" />
</g><g
     transform="matrix(1,0,0,1.25728,99.927182,62.751248)"
     id="M-BGlqrRAKZTHBCRiwr3P"
     style="fill:#020202;fill-opacity:1">
<path
   style="opacity:1;fill:#020202;fill-opacity:1;fill-rule:nonzero;stroke:#000000;stroke-width:1;stroke-linecap:butt;stroke-linejoin:miter;stroke-miterlimit:4;stroke-dasharray:none;stroke-dashoffset:0"
   d="M 0,-6.06796 V 6.06796"
   stroke-linecap="round"
   id="path21" />
</g><g
     transform="matrix(1,0,0,1.25728,104.01169,62.751248)"
     id="904ZzYuqjN8M43eTnGg0m"
     style="fill:#020202;fill-opacity:1">
<path
   style="opacity:1;fill:#020202;fill-opacity:1;fill-rule:nonzero;stroke:#000000;stroke-width:1;stroke-linecap:butt;stroke-linejoin:miter;stroke-miterlimit:4;stroke-dasharray:none;stroke-dashoffset:0"
   d="M 0,-6.06796 V 6.06796"
   stroke-linecap="round"
   id="path22" />
</g><g
     transform="matrix(1,0,0,1.25728,108.23704,62.751248)"
     id="69w9_ijtbnuE5RKbl07SX"
     style="fill:#020202;fill-opacity:1">
<path
   style="opacity:1;fill:#020202;fill-opacity:1;fill-rule:nonzero;stroke:#000000;stroke-width:1;stroke-linecap:butt;stroke-linejoin:miter;stroke-miterlimit:4;stroke-dasharray:none;stroke-dashoffset:0"
   d="M 0,-6.06796 V 6.06796"
   stroke-linecap="round"
   id="path23" />
</g><g
     transform="matrix(1,0,0,1.25728,112.32155,62.751249)"
     id="PAH7CiecZEZF6OeOTOxTD"
     style="fill:#020202;fill-opacity:1">
<path
   style="opacity:1;fill:#020202;fill-opacity:1;fill-rule:nonzero;stroke:#000000;stroke-width:1;stroke-linecap:butt;stroke-linejoin:miter;stroke-miterlimit:4;stroke-dasharray:none;stroke-dashoffset:0"
   d="M 0,-6.06796 V 6.06796"
   stroke-linecap="round"
   id="path24" />
</g><g
     transform="matrix(1,0,0,1.25728,116.40605,62.751249)"
     id="4_GGp4H7qFFlQ2Q717fFM"
     style="fill:#020202;fill-opacity:1">
<path
   style="opacity:1;fill:#020202;fill-opacity:1;fill-rule:nonzero;stroke:#000000;stroke-width:1;stroke-linecap:butt;stroke-linejoin:miter;stroke-miterlimit:4;stroke-dasharray:none;stroke-dashoffset:0"
   d="M 0,-6.06796 V 6.06796"
   stroke-linecap="round"
   id="path25" />
</g><g
     transform="matrix(1,0,0,1.25728,120.49056,62.751249)"
     id="qolvdaxaEzCzoPVH_U6fI"
     style="fill:#020202;fill-opacity:1">
<path
   style="opacity:1;fill:#020202;fill-opacity:1;fill-rule:nonzero;stroke:#000000;stroke-width:1;stroke-linecap:butt;stroke-linejoin:miter;stroke-miterlimit:4;stroke-dasharray:none;stroke-dashoffset:0"
   d="M 0,-6.06796 V 6.06796"
   stroke-linecap="round"
   id="path26" />
</g><g
     transform="matrix(1,0,0,1.25728,124.01169,62.751242)"
     id="bA28-5s7iwR42LU9rYaJ8"
     style="fill:#020202;fill-opacity:1">
<path
   style="opacity:1;fill:#020202;fill-opacity:1;fill-rule:nonzero;stroke:#000000;stroke-width:1;stroke-linecap:butt;stroke-linejoin:miter;stroke-miterlimit:4;stroke-dasharray:none;stroke-dashoffset:0"
   d="M 0,-6.06796 V 6.06796"
   stroke-linecap="round"
   id="path27" />
</g><g
     transform="matrix(1,0,0,1.25728,128.0962,62.751244)"
     id="5PcC3jtX_OMT3uTPPNcPi"
     style="fill:#020202;fill-opacity:1">
<path
   style="opacity:1;fill:#020202;fill-opacity:1;fill-rule:nonzero;stroke:#000000;stroke-width:1;stroke-linecap:butt;stroke-linejoin:miter;stroke-miterlimit:4;stroke-dasharray:none;stroke-dashoffset:0"
   d="M 0,-6.06796 V 6.06796"
   stroke-linecap="round"
   id="path28" />
</g><g
     transform="matrix(1,0,0,1.25728,132.1807,62.751244)"
     id="o-yUGy2yDZeg5zhZqe_x8"
     style="fill:#020202;fill-opacity:1">
<path
   style="opacity:1;fill:#020202;fill-opacity:1;fill-rule:nonzero;stroke:#000000;stroke-width:1;stroke-linecap:butt;stroke-linejoin:miter;stroke-miterlimit:4;stroke-dasharray:none;stroke-dashoffset:0"
   d="M 0,-6.06796 V 6.06796"
   stroke-linecap="round"
   id="path29" />
</g><g
     transform="matrix(1,0,0,1.25728,136.26521,62.751244)"
     id="Ck-6fkvE540aTJOioTnJp"
     style="fill:#020202;fill-opacity:1">
<path
   style="opacity:1;fill:#020202;fill-opacity:1;fill-rule:nonzero;stroke:#000000;stroke-width:1;stroke-linecap:butt;stroke-linejoin:miter;stroke-miterlimit:4;stroke-dasharray:none;stroke-dashoffset:0"
   d="M 0,-6.06796 V 6.06796"
   stroke-linecap="round"
   id="path30" />
</g><g
     transform="matrix(1,0,0,1.25728,140.49056,62.751244)"
     id="gmb-gx4KKhd02-zIKFJyd"
     style="fill:#020202;fill-opacity:1">
<path
   style="opacity:1;fill:#020202;fill-opacity:1;fill-rule:nonzero;stroke:#000000;stroke-width:1;stroke-linecap:butt;stroke-linejoin:miter;stroke-miterlimit:4;stroke-dasharray:none;stroke-dashoffset:0"
   d="M 0,-6.06796 V 6.06796"
   stroke-linecap="round"
   id="path31" />
</g><g
     transform="matrix(1.3836809,0,0,0.80944625,100,57.905965)"
     id="O3KfRp4bRpuuSXeYXjH7J"
     style="fill:#020202;fill-opacity:1">
<path
   style="opacity:1;fill:#020202;fill-opacity:1;fill-rule:nonzero;stroke:#000000;stroke-width:1;stroke-linecap:butt;stroke-linejoin:miter;stroke-miterlimit:4;stroke-dasharray:none;stroke-dashoffset:0"
   d="M -32.25352,0 H 8.87324 32.25352"
   stroke-linecap="round"
   id="path32" />
</g><g
     transform="matrix(1.3836809,0,0,0.80944625,100,60.984141)"
     id="sPepBS5-MTXbhZetG00L0"
     style="fill:#020202;fill-opacity:1">
<path
   style="opacity:1;fill:#020202;fill-opacity:1;fill-rule:nonzero;stroke:#000000;stroke-width:1;stroke-linecap:butt;stroke-linejoin:miter;stroke-miterlimit:4;stroke-dasharray:none;stroke-dashoffset:0"
   d="M -32.25352,0 H 8.87324 32.25352"
   stroke-linecap="round"
   id="path33" />
</g><g
     transform="matrix(1.3836809,0,0,0.80944625,99.999998,64.29033)"
     id="5hu5GNDik5jDXgD5zzCi9"
     style="fill:#020202;fill-opacity:1">
<path
   style="opacity:1;fill:#020202;fill-opacity:1;fill-rule:nonzero;stroke:#000000;stroke-width:1;stroke-linecap:butt;stroke-linejoin:miter;stroke-miterlimit:4;stroke-dasharray:none;stroke-dashoffset:0"
   d="M -32.25352,0 H 8.87324 32.25352"
   stroke-linecap="round"
   id="path34" />
</g><g
     transform="matrix(1.3836809,0,0,0.80944625,99.999998,67.596519)"
     id="SzF8PcjryqQiLZ2ahC6W6"
     style="fill:#020202;fill-opacity:1">
<path
   style="opacity:1;fill:#020202;fill-opacity:1;fill-rule:nonzero;stroke:#000000;stroke-width:1;stroke-linecap:butt;stroke-linejoin:miter;stroke-miterlimit:4;stroke-dasharray:none;stroke-dashoffset:0"
   d="M -32.25352,0 H 8.87324 32.25352"
   stroke-linecap="round"
   id="path35" />
</g></g>
<g
   transform="matrix(0.20704003,0,0,0.4,31.548793,74.05429)"
   id="QV12EMdtYn_jjtsGESomY">
<path
   style="opacity:1;fill:#ffffff;fill-rule:nonzero;stroke:#000000;stroke-width:0;stroke-linecap:butt;stroke-linejoin:miter;stroke-miterlimit:4;stroke-dasharray:none;stroke-dashoffset:0"
   d="m -26.04167,-14.99312 c 0,-6.10194 9.5568,-11.04854 21.34571,-11.04854 H 7.13751 v 0 c 10.44047,0 18.90415,4.3808 18.90415,9.78479 v 31.25 0 c 0,6.10194 -9.5568,11.04854 -21.34571,11.04854 H -7.13752 v 0 c -10.44047,0 -18.90415,-4.3808 -18.90415,-9.78479 z"
   stroke-linecap="round"
   id="path36" />
</g>
<g
   transform="matrix(0.21586935,0,0,0.4,169.5138,74.05429)"
   id="wkL-MNIKjQhQq-9z0n1jc">
<path
   style="opacity:1;fill:#ffffff;fill-rule:nonzero;stroke:#000000;stroke-width:0;stroke-linecap:butt;stroke-linejoin:miter;stroke-miterlimit:4;stroke-dasharray:none;stroke-dashoffset:0"
   d="m -26.04167,-14.99312 c 0,-6.10194 9.16592,-11.04854 20.47265,-11.04854 H 7.91072 v 0 c 10.01345,0 18.13095,4.3808 18.13095,9.78479 v 31.25 0 c 0,6.10194 -9.16592,11.04854 -20.47265,11.04854 H -7.91072 v 0 c -10.01345,0 -18.13095,-4.3808 -18.13095,-9.78479 z"
   stroke-linecap="round"
   id="path37" />
</g>
</svg>
