<?xml version="1.0" encoding="UTF-8" standalone="no"?>
<svg
   version="1.1"
   width="190"
   height="190"
   viewBox="0 0 190 190"
   xml:space="preserve"
   id="svg16"
   sodipodi:docname="Car3.svg"
   inkscape:version="1.3.2 (091e20e, 2023-11-25, custom)"
   xmlns:inkscape="http://www.inkscape.org/namespaces/inkscape"
   xmlns:sodipodi="http://sodipodi.sourceforge.net/DTD/sodipodi-0.dtd"
   xmlns="http://www.w3.org/2000/svg"
   xmlns:svg="http://www.w3.org/2000/svg"><sodipodi:namedview
   id="namedview16"
   pagecolor="#ffffff"
   bordercolor="#000000"
   borderopacity="0.25"
   inkscape:showpageshadow="2"
   inkscape:pageopacity="0.0"
   inkscape:pagecheckerboard="0"
   inkscape:deskcolor="#d1d1d1"
   inkscape:zoom="4.3210526"
   inkscape:cx="94.884288"
   inkscape:cy="95.000001"
   inkscape:window-width="1920"
   inkscape:window-height="1017"
   inkscape:window-x="-8"
   inkscape:window-y="-8"
   inkscape:window-maximized="1"
   inkscape:current-layer="svg16" />
<desc
   id="desc1">Created with Fabric.js 5.3.0</desc>
<defs
   id="defs1">
</defs>

<g
   transform="matrix(1.0938534966 0 0 1.9908133638 21.1581290961 129.876798247)"
   id="jjMOdCSLl1HZHEQ37SMwq">
<path
   style="stroke: rgb(6,3,86); stroke-width: 0; stroke-dasharray: none; stroke-linecap: butt; stroke-dashoffset: 0; stroke-linejoin: miter; stroke-miterlimit: 4; fill: rgb(0,0,0); fill-rule: nonzero; opacity: 1;"
   transform=" translate(0, 0)"
   d="M -10.38251 -7.96222 C -10.38251 -9.29891 -8.41036 -10.38251 -5.97758 -10.38251 L 5.977590000000001 -10.38251 L 5.977590000000001 -10.38251 C 8.41036 -10.38251 10.382520000000001 -9.29891 10.382520000000001 -7.96222 L 10.382520000000001 7.96223 L 10.382520000000001 7.96223 C 10.382520000000001 9.298919999999999 8.41037 10.38252 5.977590000000001 10.38252 L -5.97758 10.38252 L -5.97758 10.38252 C -8.41035 10.38252 -10.38251 9.298919999999999 -10.38251 7.96223 z"
   stroke-linecap="round"
   id="path2" />
</g>
<g
   transform="matrix(1.0938534966 0 0 1.9908133638 168.8343284771 129.8768009123)"
   id="bbU7L_EczSA6QDlXTz2d1">
<path
   style="stroke: rgb(6,3,86); stroke-width: 0; stroke-dasharray: none; stroke-linecap: butt; stroke-dashoffset: 0; stroke-linejoin: miter; stroke-miterlimit: 4; fill: rgb(0,0,0); fill-rule: nonzero; opacity: 1;"
   transform=" translate(0, 0)"
   d="M -10.38251 -7.96222 C -10.38251 -9.29891 -8.41036 -10.38251 -5.97758 -10.38251 L 5.977590000000001 -10.38251 L 5.977590000000001 -10.38251 C 8.41036 -10.38251 10.382520000000001 -9.29891 10.382520000000001 -7.96222 L 10.382520000000001 7.96223 L 10.382520000000001 7.96223 C 10.382520000000001 9.298919999999999 8.41037 10.38252 5.977590000000001 10.38252 L -5.97758 10.38252 L -5.97758 10.38252 C -8.41035 10.38252 -10.38251 9.298919999999999 -10.38251 7.96223 z"
   stroke-linecap="round"
   id="path3" />
</g>

<g
   id="groupGlass"
   inkscape:label="groupGlass"><g
     transform="matrix(5.5311565623 0 0 2.096252243 94.978296762 65.4103029393)"
     id="ifRaHiraSZ3p7lRpiBW-e">
<path
   style="stroke: rgb(206,112,164); stroke-width: 0; stroke-dasharray: none; stroke-linecap: butt; stroke-dashoffset: 0; stroke-linejoin: miter; stroke-miterlimit: 4; fill: rgb(186,255,250); fill-rule: nonzero; opacity: 1;"
   transform=" translate(0, 0)"
   d="M -10.38251 -10.38251 L 10.38252 -10.38251 L 10.38252 10.38252 L -10.38251 10.38252 z"
   stroke-linecap="round"
   id="path5" />
</g></g>
<g
   transform="matrix(1.8212660718 0 0 1.8212660718 125.9259824374 94.7270414891)"
   id="ugyUpFsyPHWoooNo1b9Rz">
<path
   style="stroke: rgb(135,253,102); stroke-width: 0; stroke-dasharray: none; stroke-linecap: butt; stroke-dashoffset: 0; stroke-linejoin: miter; stroke-miterlimit: 4; fill: rgb(0,0,0); fill-rule: nonzero; opacity: 1;"
   transform=" translate(0, 0)"
   d="M 0 -10.38251 C 5.73115 -10.38251 10.38251 -5.73114 10.38251 0 C 10.38251 5.73115 5.73114 10.38251 0 10.38251 C -5.73115 10.38251 -10.38251 5.73114 -10.38251 0 C -10.38251 -5.73115 -5.73114 -10.38251 0 -10.38251 z"
   stroke-linecap="round"
   id="path6" />
</g>





<g
   id="groupBodyMain"
   inkscape:label="groupBodyMain"><g
     transform="matrix(-0.2790163982 0 0 0.5373917914 27.3476662311 65.4103029393)"
     id="kANKEHMs0ZbkZQFencW1s">
<path
   style="stroke: none; stroke-width: 1; stroke-dasharray: none; stroke-linecap: butt; stroke-dashoffset: 0; stroke-linejoin: miter; stroke-miterlimit: 4; fill: rgb(0,0,0); fill-rule: nonzero; opacity: 1;"
   transform=" translate(-40, -40)"
   d="M 0 0 L 80 80 L 0 80 L 0 0 z"
   stroke-linecap="round"
   id="path1" />
</g><g
     transform="matrix(0.2780570718 0 0 0.5373917914 162.5700745732 65.4103029403)"
     id="HLYW3rl59JZm12uiwZFG2">
<path
   style="stroke: none; stroke-width: 1; stroke-dasharray: none; stroke-linecap: butt; stroke-dashoffset: 0; stroke-linejoin: miter; stroke-miterlimit: 4; fill: rgb(0,0,0); fill-rule: nonzero; opacity: 1;"
   transform=" translate(-40, -40)"
   d="M 0 0 L 80 80 L 0 80 L 0 0 z"
   stroke-linecap="round"
   id="path4" />
</g><g
     transform="matrix(7.9632534552 0 0 2.231461133 94.978296762 109.2071513005)"
     id="07kEg5S1709cLAMu5oHPa">
<path
   style="stroke: rgb(209,108,61); stroke-width: 0; stroke-dasharray: none; stroke-linecap: butt; stroke-dashoffset: 0; stroke-linejoin: miter; stroke-miterlimit: 4; fill: rgb(0,0,0); fill-rule: nonzero; opacity: 1;"
   transform=" translate(0, 0)"
   d="M -10.38251 -8.22324 C -10.38251 -9.41578 -10.11161 -10.38252 -9.77744 -10.38252 L 9.77744 -10.38252 L 9.77744 -10.38252 C 10.11161 -10.38252 10.38251 -9.41578 10.38251 -8.22324 L 10.38251 8.223230000000001 L 10.38251 8.223230000000001 C 10.38251 9.41577 10.11161 10.38251 9.77744 10.38251 L -9.77744 10.38251 L -9.77744 10.38251 C -10.11161 10.38251 -10.38251 9.41577 -10.38251 8.223230000000001 z"
   stroke-linecap="round"
   id="path7" />
</g><g
     transform="matrix(0.9188369371 0 0 0.4703570035 12.2997089761 85.0168406239)"
     id="nwHlinzgy8H_olR2O565M">
<path
   style="stroke: rgb(89,77,115); stroke-width: 0; stroke-dasharray: none; stroke-linecap: butt; stroke-dashoffset: 0; stroke-linejoin: miter; stroke-miterlimit: 4; fill: rgb(0,0,0); fill-rule: nonzero; opacity: 1;"
   transform=" translate(0, 0)"
   d="M -10.38251 -0.1385 C -10.38251 -5.79611 -8.03471 -10.382520000000001 -5.1385499999999995 -10.382520000000001 L 5.138550000000001 -10.382520000000001 L 5.138550000000001 -10.382520000000001 C 8.03471 -10.382520000000001 10.382510000000002 -5.796120000000001 10.382510000000002 -0.1385000000000005 L 10.382510000000002 0.1384899999999995 L 10.382510000000002 0.1384899999999995 C 10.382510000000002 5.796099999999999 8.034710000000002 10.38251 5.138550000000001 10.38251 L -5.1385499999999995 10.38251 L -5.1385499999999995 10.38251 C -8.03471 10.38251 -10.38251 5.79611 -10.38251 0.1384899999999991 z"
   stroke-linecap="round"
   id="path10" />
</g><g
     transform="matrix(0.9188369371 0 0 0.4703570035 177.6568845479 85.0168412536)"
     id="J8eD1IGb-ohUMd5R8IsiW">
<path
   style="stroke: rgb(89,77,115); stroke-width: 0; stroke-dasharray: none; stroke-linecap: butt; stroke-dashoffset: 0; stroke-linejoin: miter; stroke-miterlimit: 4; fill: rgb(0,0,0); fill-rule: nonzero; opacity: 1;"
   transform=" translate(0, 0)"
   d="M -10.38251 -0.1385 C -10.38251 -5.79611 -8.03471 -10.382520000000001 -5.1385499999999995 -10.382520000000001 L 5.138550000000001 -10.382520000000001 L 5.138550000000001 -10.382520000000001 C 8.03471 -10.382520000000001 10.382510000000002 -5.796120000000001 10.382510000000002 -0.1385000000000005 L 10.382510000000002 0.1384899999999995 L 10.382510000000002 0.1384899999999995 C 10.382510000000002 5.796099999999999 8.034710000000002 10.38251 5.138550000000001 10.38251 L -5.1385499999999995 10.38251 L -5.1385499999999995 10.38251 C -8.03471 10.38251 -10.38251 5.79611 -10.38251 0.1384899999999991 z"
   stroke-linecap="round"
   id="path11" />
</g><g
     transform="matrix(5.5311565623 0 0 0.2557764277 94.978296762 41.9449106584)"
     id="OAyr5Mf46M0En5NfEmFz5">
<path
   style="stroke: rgb(84,134,234); stroke-width: 0; stroke-dasharray: none; stroke-linecap: butt; stroke-dashoffset: 0; stroke-linejoin: miter; stroke-miterlimit: 4; fill: rgb(0,0,0); fill-rule: nonzero; opacity: 1;"
   transform=" translate(0, 0)"
   d="M -10.38251 -10.38251 L 10.38252 -10.38251 L 10.38252 10.38252 L -10.38251 10.38252 z"
   stroke-linecap="round"
   id="path12" />
</g></g><g
   transform="matrix(1.2579315211 0 0 0.656312098 30.1301187047 96.7145075417)"
   id="Z_lD0Z6zzut3CvCUmCoiG">
<path
   style="stroke: rgb(123,44,151); stroke-width: 0; stroke-dasharray: none; stroke-linecap: butt; stroke-dashoffset: 0; stroke-linejoin: miter; stroke-miterlimit: 4; fill: rgb(255,255,255); fill-rule: nonzero; opacity: 1;"
   transform=" translate(0, 0)"
   d="M -10.38251 -3.04097 C -10.38251 -7.09559 -8.66759 -10.38252 -6.55214 -10.38252 L 6.55214 -10.38252 L 6.55214 -10.38252 C 8.6676 -10.38252 10.38251 -7.095599999999999 10.38251 -3.0409699999999997 L 10.38251 3.0409700000000006 L 10.38251 3.0409700000000006 C 10.38251 7.0955900000000005 8.66759 10.38252 6.55214 10.38252 L -6.55214 10.38252 L -6.55214 10.38252 C -8.6676 10.38252 -10.38251 7.095599999999999 -10.38251 3.0409699999999997 z"
   stroke-linecap="round"
   id="path8" />
</g><g
   transform="matrix(1.2579315211 0 0 0.656312098 160.770899384 96.7145033814)"
   id="MNfCprdm5XRZ_oxrhhquQ">
<path
   style="stroke: rgb(123,44,151); stroke-width: 0; stroke-dasharray: none; stroke-linecap: butt; stroke-dashoffset: 0; stroke-linejoin: miter; stroke-miterlimit: 4; fill: rgb(255,255,255); fill-rule: nonzero; opacity: 1;"
   transform=" translate(0, 0)"
   d="M -10.38251 -3.04097 C -10.38251 -7.09559 -8.66759 -10.38252 -6.55214 -10.38252 L 6.55214 -10.38252 L 6.55214 -10.38252 C 8.6676 -10.38252 10.38251 -7.095599999999999 10.38251 -3.0409699999999997 L 10.38251 3.0409700000000006 L 10.38251 3.0409700000000006 C 10.38251 7.0955900000000005 8.66759 10.38252 6.55214 10.38252 L -6.55214 10.38252 L -6.55214 10.38252 C -8.6676 10.38252 -10.38251 7.095599999999999 -10.38251 3.0409699999999997 z"
   stroke-linecap="round"
   id="path9" />
</g>
<g
   id="groupGrill"
   inkscape:label="groupGrill"><g
     transform="matrix(3.5659620033 0 0 0.6598088427 94.978296762 116.3620290897)"
     id="4_o50qanEvryWGL-2a-PG">
<path
   style="stroke: rgb(123,200,45); stroke-width: 0; stroke-dasharray: none; stroke-linecap: butt; stroke-dashoffset: 0; stroke-linejoin: miter; stroke-miterlimit: 4; fill: rgb(255,255,255); fill-rule: nonzero; opacity: 1;"
   transform=" translate(0, 0)"
   d="M -10.38251 -10.38251 L 10.38252 -10.38251 L 10.38252 10.38252 L -10.38251 10.38252 z"
   stroke-linecap="round"
   id="path13" />
</g></g>


<g
   id="groupBodyGrill"
   inkscape:label="groupBodyGrill"><g
     transform="matrix(1.0021933002 0 0 1.0938534966 94.978296762 112.4648024242)"
     id="w_661sSqfbLXmuRwYEzSD">
<path
   style="stroke: rgb(0,0,0); stroke-width: 1; stroke-dasharray: none; stroke-linecap: butt; stroke-dashoffset: 0; stroke-linejoin: miter; stroke-miterlimit: 4; fill: rgb(255,255,255); fill-opacity: 0; fill-rule: nonzero; opacity: 1;"
   transform=" translate(0, 0)"
   d="M -36.44262 0 L 36.44263 0"
   stroke-linecap="round"
   id="path14" />
</g><g
     transform="matrix(1.0021932446 0 0 1.0938534966 94.978296762 116.3620290897)"
     id="Njl6JskA8Fua9wd2Xq1tD">
<path
   style="stroke: rgb(0,0,0); stroke-width: 1; stroke-dasharray: none; stroke-linecap: butt; stroke-dashoffset: 0; stroke-linejoin: miter; stroke-miterlimit: 4; fill: rgb(255,255,255); fill-opacity: 0; fill-rule: nonzero; opacity: 1;"
   transform=" translate(0, 0)"
   d="M -36.44262 0 L 36.44263 0"
   stroke-linecap="round"
   id="path15" />
</g><g
     transform="matrix(1.0021932724 0 0 1.0938534966 94.9782936815 119.8049778003)"
     id="QbIh7RzhfBUUe0zmQaQWA"
     inkscape:label="QbIh7RzhfBUUe0zmQaQWA">
<path
   style="stroke: rgb(0,0,0); stroke-width: 1; stroke-dasharray: none; stroke-linecap: butt; stroke-dashoffset: 0; stroke-linejoin: miter; stroke-miterlimit: 4; fill: rgb(255,255,255); fill-opacity: 0; fill-rule: nonzero; opacity: 1;"
   transform=" translate(0, 0)"
   d="M -36.44262 0 L 36.44263 0"
   stroke-linecap="round"
   id="path16" />
</g></g>
</svg>
