<?xml version="1.0" encoding="UTF-8" standalone="no" ?>
<!DOCTYPE svg PUBLIC "-//W3C//DTD SVG 1.1//EN" "http://www.w3.org/Graphics/SVG/1.1/DTD/svg11.dtd">
<svg xmlns="http://www.w3.org/2000/svg" xmlns:xlink="http://www.w3.org/1999/xlink" version="1.1" width="200" height="200" viewBox="0 0 200 200" xml:space="preserve">
<desc>Created with Fabric.js 5.3.0</desc>
<defs>
</defs>
<g transform="matrix(1.4034480632 0 0 2.15 23.8185383517 167.7595628415)" id="PR3ZoLdz_uKnXFpIiORK0"  >
<path style="stroke: rgb(200,145,119); stroke-width: 0; stroke-dasharray: none; stroke-linecap: butt; stroke-dashoffset: 0; stroke-linejoin: miter; stroke-miterlimit: 4; fill: rgb(0,0,0); fill-rule: nonzero; opacity: 1;"  transform=" translate(0, 0)" d="M -10.92896 -8.77233 C -10.92896 -9.96341 -9.44978 -10.92897 -7.62512 -10.92897 L 7.6251299999999995 -10.92897 L 7.6251299999999995 -10.92897 C 9.44979 -10.92897 10.92897 -9.96341 10.92897 -8.77233 L 10.92897 8.77232 L 10.92897 8.77232 C 10.92897 9.9634 9.44979 10.92896 7.6251299999999995 10.92896 L -7.62512 10.92896 L -7.62512 10.92896 C -9.44978 10.92896 -10.92896 9.9634 -10.92896 8.77232 z" stroke-linecap="round" />
</g>
<g transform="matrix(1.4636157582 0 0 2.15 176.7025179671 167.7595558511)" id="AOLNpFgXL8KeByysNzYXa"  >
<path style="stroke: rgb(200,145,119); stroke-width: 0; stroke-dasharray: none; stroke-linecap: butt; stroke-dashoffset: 0; stroke-linejoin: miter; stroke-miterlimit: 4; fill: rgb(0,0,0); fill-rule: nonzero; opacity: 1;"  transform=" translate(0, 0)" d="M -10.92896 -8.77233 C -10.92896 -9.96341 -9.51059 -10.92897 -7.76094 -10.92897 L 7.76094 -10.92897 L 7.76094 -10.92897 C 9.51059 -10.92897 10.92896 -9.96341 10.92896 -8.77233 L 10.92896 8.77232 L 10.92896 8.77232 C 10.92896 9.9634 9.51059 10.92896 7.76094 10.92896 L -7.76094 10.92896 L -7.76094 10.92896 C -9.51059 10.92896 -10.92896 9.9634 -10.92896 8.77232 z" stroke-linecap="round" />
</g>
<g transform="matrix(-0.142738551 0 0 0.353283896 15.5239658337 99.1852523665)" id="X3BBm7H2CiSiqArb-XhNy"  >
<path style="stroke: none; stroke-width: 1; stroke-dasharray: none; stroke-linecap: butt; stroke-dashoffset: 0; stroke-linejoin: miter; stroke-miterlimit: 4; fill: rgb(0,0,0); fill-rule: nonzero; opacity: 1;"  transform=" translate(-40, -40)" d="M 0 0 L 80 80 L 0 80 L 0 0 z" stroke-linecap="round" />
</g>
<g transform="matrix(5.69 0 0 2.2849458928 101.3425609003 60.0582231873)" id="l37UkZMIfL_CseoANQhtM"  >
<path style="stroke: rgb(117,204,216); stroke-width: 0; stroke-dasharray: none; stroke-linecap: butt; stroke-dashoffset: 0; stroke-linejoin: miter; stroke-miterlimit: 4; fill: rgb(191,244,255); fill-rule: nonzero; opacity: 1;"  transform=" translate(0, 0)" d="M -10.92896 -10.92896 L 10.92896 -10.92896 L 10.92896 10.92896 L -10.92896 10.92896 z" stroke-linecap="round" />
</g>
<g transform="matrix(0.6072135557 0.2886905512 -0.2227167432 0.5876789308 12.2346006589 90.8718664652)" id="sBSlYM5dP7p6_P5uMz6Pw"  >
<path style="stroke: rgb(101,173,65); stroke-width: 0; stroke-dasharray: none; stroke-linecap: butt; stroke-dashoffset: 0; stroke-linejoin: miter; stroke-miterlimit: 4; fill: rgb(0,0,0); fill-rule: nonzero; opacity: 1;"  transform=" translate(0, 0)" d="M -10.92896 -10.92896 L 10.92896 -10.92896 L 10.92896 10.92896 L -10.92896 10.92896 z" stroke-linecap="round" />
</g>
<g transform="matrix(0.1347160579 0 0 0.3508018869 185.8319157462 99.0847309952)" id="vb5iCNTZu7gXievwyEjLj"  >
<path style="stroke: none; stroke-width: 1; stroke-dasharray: none; stroke-linecap: butt; stroke-dashoffset: 0; stroke-linejoin: miter; stroke-miterlimit: 4; fill: rgb(0,0,0); fill-rule: nonzero; opacity: 1;"  transform=" translate(-40, -40)" d="M 0 0 L 80 80 L 0 80 L 0 0 z" stroke-linecap="round" />
</g>
<g transform="matrix(1.94 0 0 2.2279058663 127.3977718732 98.0556735923)" id="eKB0ygMHhXZJl7rLOeMzT"  >
<path style="stroke: rgb(98,3,80); stroke-width: 0; stroke-dasharray: none; stroke-linecap: butt; stroke-dashoffset: 0; stroke-linejoin: miter; stroke-miterlimit: 4; fill: rgb(0,0,0); fill-rule: nonzero; opacity: 1;"  transform=" translate(0, 0)" d="M 0 -10.92896 C 6.03279 -10.92896 10.92896 -6.03279 10.92896 0 C 10.92896 6.03279 6.03279 10.92896 0 10.92896 C -6.03279 10.92896 -10.92896 6.03279 -10.92896 0 C -10.92896 -6.03279 -6.03279 -10.92896 0 -10.92896 z" stroke-linecap="round" />
</g>
<g transform="matrix(8.6040520305 0 0 2.7334586166 100.0974273312 142.9871744048)" id="0MJzbIadRR_BTd4XBjZdW"  >
<path style="stroke: rgb(215,138,174); stroke-width: 0; stroke-dasharray: none; stroke-linecap: butt; stroke-dashoffset: 0; stroke-linejoin: miter; stroke-miterlimit: 4; fill: rgb(0,0,0); fill-rule: nonzero; opacity: 1;"  transform=" translate(0, 0)" d="M -10.92896 -9.23266 C -10.92896 -9.682549999999999 -10.87218 -10.114009999999999 -10.77112 -10.432129999999999 C -10.67006 -10.75025 -10.53298 -10.928959999999998 -10.39006 -10.928959999999998 L 10.39005 -10.928959999999998 L 10.39005 -10.928959999999998 C 10.53298 -10.928959999999998 10.67005 -10.750239999999998 10.77111 -10.432129999999999 C 10.87217 -10.114009999999999 10.92895 -9.682549999999999 10.92895 -9.23266 L 10.92895 9.23266 L 10.92895 9.23266 C 10.92895 10.1695 10.68767 10.92896 10.39005 10.92896 L -10.39006 10.92896 L -10.39006 10.92896 C -10.68769 10.92896 -10.92896 10.1695 -10.92896 9.23266 z" stroke-linecap="round" />
</g>
<g transform="matrix(7.2775 0 0 1.3523161946 100.8403962752 98.713838192)" id="OLTCJscS3W8cXeYzyN7OJ"  >
<path style="stroke: rgb(127,206,85); stroke-width: 0; stroke-dasharray: none; stroke-linecap: butt; stroke-dashoffset: 0; stroke-linejoin: miter; stroke-miterlimit: 4; fill: rgb(0,0,0); fill-rule: nonzero; opacity: 1;"  transform=" translate(0, 0)" d="M -10.92896 -10.92896 L 10.92896 -10.92896 L 10.92896 10.92896 L -10.92896 10.92896 z" stroke-linecap="round" />
</g>
<g transform="matrix(-0.220393721 0 0 0.6264131098 30.23082285 59.6605785016)" id="gdCIHVcGISdtThHMx_IxA"  >
<path style="stroke: none; stroke-width: 1; stroke-dasharray: none; stroke-linecap: butt; stroke-dashoffset: 0; stroke-linejoin: miter; stroke-miterlimit: 4; fill: rgb(0,0,0); fill-rule: nonzero; opacity: 1;"  transform=" translate(-40, -40)" d="M 0 0 L 80 80 L 0 80 L 0 0 z" stroke-linecap="round" />
</g>
<g transform="matrix(0.2079945945 0 0 0.6345046318 171.9521343254 59.6605785016)" id="HnnnbnXHuDzuq6d4xnB8t"  >
<path style="stroke: none; stroke-width: 1; stroke-dasharray: none; stroke-linecap: butt; stroke-dashoffset: 0; stroke-linejoin: miter; stroke-miterlimit: 4; fill: rgb(0,0,0); fill-rule: nonzero; opacity: 1;"  transform=" translate(-40, -40)" d="M 0 0 L 80 80 L 0 80 L 0 0 z" stroke-linecap="round" />
</g>
<g transform="matrix(5.69 0 0 0.1651907644 101.3425609003 33.2807733814)" id="WEyLDO130QW_21aPW9sli"  >
<path style="stroke: rgb(111,123,180); stroke-width: 0; stroke-dasharray: none; stroke-linecap: butt; stroke-dashoffset: 0; stroke-linejoin: miter; stroke-miterlimit: 4; fill: rgb(0,0,0); fill-rule: nonzero; opacity: 1;"  transform=" translate(0, 0)" d="M -10.92896 -10.92896 L 10.92896 -10.92896 L 10.92896 10.92896 L -10.92896 10.92896 z" stroke-linecap="round" />
</g>
<g transform="matrix(1.5259740374 0.6794074145 -0.3875009109 0.8703412959 35.4409215561 104.1825918818)" id="vm-UoYI7wUQjvKvHARQeX"  >
<path style="stroke: rgb(192,33,152); stroke-width: 0; stroke-dasharray: none; stroke-linecap: butt; stroke-dashoffset: 0; stroke-linejoin: miter; stroke-miterlimit: 4; fill: rgb(255,255,255); fill-rule: nonzero; opacity: 1;"  transform=" translate(0, 0)" d="M -10.92896 -4.74356 C -10.92896 -8.15966 -9.34949 -10.92896 -7.40111 -10.92896 L 7.40111 -10.92896 L 7.40111 -10.92896 C 9.34949 -10.92896 10.92896 -8.15966 10.92896 -4.74356 L 10.92896 4.74357 L 10.92896 4.74357 C 10.92896 8.15967 9.34949 10.92897 7.40111 10.92897 L -7.40111 10.92897 L -7.40111 10.92897 C -9.34949 10.92897 -10.92896 8.15967 -10.92896 4.74357 z" stroke-linecap="round" />
</g>
<g transform="matrix(1.5259740374 -0.6794074145 0.387500911 0.8703412959 166.4183868911 104.1825902398)" id="sGlFHPx3ubD_nkhF-JxLC"  >
<path style="stroke: rgb(192,33,152); stroke-width: 0; stroke-dasharray: none; stroke-linecap: butt; stroke-dashoffset: 0; stroke-linejoin: miter; stroke-miterlimit: 4; fill: rgb(255,255,255); fill-rule: nonzero; opacity: 1;"  transform=" translate(0, -0.000005)" d="M -10.92896 -4.74356 C -10.92896 -8.15966 -9.34949 -10.92896 -7.40111 -10.92896 L 7.40111 -10.92896 L 7.40111 -10.92896 C 9.34949 -10.92896 10.92896 -8.15966 10.92896 -4.74356 L 10.92896 4.74357 L 10.92896 4.74357 C 10.92896 8.15967 9.34949 10.92897 7.40111 10.92897 L -7.40111 10.92897 L -7.40111 10.92897 C -9.34949 10.92897 -10.92896 8.15967 -10.92896 4.74357 z" stroke-linecap="round" />
</g>
<g transform="matrix(-0.6072135557 0.2886905512 0.2227167432 0.5876789308 189.4461904403 90.8718649329)" id="j1TqeM1RIb0tfn8tCjsM7"  >
<path style="stroke: rgb(101,173,65); stroke-width: 0; stroke-dasharray: none; stroke-linecap: butt; stroke-dashoffset: 0; stroke-linejoin: miter; stroke-miterlimit: 4; fill: rgb(0,0,0); fill-rule: nonzero; opacity: 1;"  transform=" translate(0, 0)" d="M -10.92896 -10.92896 L 10.92896 -10.92896 L 10.92896 10.92896 L -10.92896 10.92896 z" stroke-linecap="round" />
</g>
<g transform="matrix(0.511680848 0 0 0.511680848 21.3048771495 157.1592701814)" id="_C2fjuzJ3JA6ZaKILRGmk"  >
<path style="stroke: rgb(160,48,41); stroke-width: 0; stroke-dasharray: none; stroke-linecap: butt; stroke-dashoffset: 0; stroke-linejoin: miter; stroke-miterlimit: 4; fill: rgb(255,255,255); fill-rule: nonzero; opacity: 1;"  transform=" translate(0, 0)" d="M 0 -10.92896 C 6.03279 -10.92896 10.92896 -6.03279 10.92896 0 C 10.92896 6.03279 6.03279 10.92896 0 10.92896 C -6.03279 10.92896 -10.92896 6.03279 -10.92896 0 C -10.92896 -6.03279 -6.03279 -10.92896 0 -10.92896 z" stroke-linecap="round" />
</g>
<g transform="matrix(0.511680848 0 0 0.511680848 180.3759154008 157.1592710761)" id="1FU9v0J0iu4eMyi3ojE_m"  >
<path style="stroke: rgb(160,48,41); stroke-width: 0; stroke-dasharray: none; stroke-linecap: butt; stroke-dashoffset: 0; stroke-linejoin: miter; stroke-miterlimit: 4; fill: rgb(255,255,255); fill-rule: nonzero; opacity: 1;"  transform=" translate(0, 0)" d="M 0 -10.92896 C 6.03279 -10.92896 10.92896 -6.03279 10.92896 0 C 10.92896 6.03279 6.03279 10.92896 0 10.92896 C -6.03279 10.92896 -10.92896 6.03279 -10.92896 0 C -10.92896 -6.03279 -6.03279 -10.92896 0 -10.92896 z" stroke-linecap="round" />
</g>
<g transform="matrix(5.5 0 0 1 100 141.5124867468)" id="9Dkdw_50W9VmF3k9Apqr8"  >
<path style="stroke: rgb(219,239,173); stroke-width: 0; stroke-dasharray: none; stroke-linecap: butt; stroke-dashoffset: 0; stroke-linejoin: miter; stroke-miterlimit: 4; fill: rgb(255,255,255); fill-rule: nonzero; opacity: 1;"  transform=" translate(0, 0)" d="M -10.92896 -6.2922 C -10.92896 -8.85302 -10.55151 -10.92897 -10.08591 -10.92897 L 10.08592 -10.92897 L 10.08592 -10.92897 C 10.55152 -10.92897 10.92897 -8.853019999999999 10.92897 -6.292199999999999 L 10.92897 6.2921900000000015 L 10.92897 6.2921900000000015 C 10.92897 8.853010000000001 10.55152 10.928960000000002 10.08592 10.928960000000002 L -10.08591 10.928960000000002 L -10.08591 10.928960000000002 C -10.55151 10.928960000000002 -10.92896 8.853010000000001 -10.92896 6.2921900000000015 z" stroke-linecap="round" />
</g>
<g transform="matrix(1 0 0 1.9672131148 99.7660581681 148.5245901639)" id="PTueyKXtX0DQ5Xpnl9qvO"  >
<path style="stroke: rgb(0,0,0); stroke-width: 1; stroke-dasharray: none; stroke-linecap: butt; stroke-dashoffset: 0; stroke-linejoin: miter; stroke-miterlimit: 4; fill: rgb(255,255,255); fill-opacity: 0; fill-rule: nonzero; opacity: 1;"  transform=" translate(0, 0)" d="M -60.10929 0 L 60.10929 0" stroke-linecap="round" />
</g>
<g transform="matrix(1 0 0 1.9672131148 100.0974273312 144.262295082)" id="5rOmBSyF1eDimsMQvPwyl"  >
<path style="stroke: rgb(0,0,0); stroke-width: 1; stroke-dasharray: none; stroke-linecap: butt; stroke-dashoffset: 0; stroke-linejoin: miter; stroke-miterlimit: 4; fill: rgb(255,255,255); fill-opacity: 0; fill-rule: nonzero; opacity: 1;"  transform=" translate(0, 0)" d="M -60.10929 0 L 60.10929 0" stroke-linecap="round" />
</g>
<g transform="matrix(1 0 0 1.9672131148 100.0974273312 139.6545632495)" id="daJoDCTTNf1hBWJf3Jrvn"  >
<path style="stroke: rgb(0,0,0); stroke-width: 1; stroke-dasharray: none; stroke-linecap: butt; stroke-dashoffset: 0; stroke-linejoin: miter; stroke-miterlimit: 4; fill: rgb(255,255,255); fill-opacity: 0; fill-rule: nonzero; opacity: 1;"  transform=" translate(0, 0)" d="M -60.10929 0 L 60.10929 0" stroke-linecap="round" />
</g>
<g transform="matrix(1 0 0 1.9672131148 100 135.6830601093)" id="ZxSsTRnKdMZJnOu0nisFg"  >
<path style="stroke: rgb(0,0,0); stroke-width: 1; stroke-dasharray: none; stroke-linecap: butt; stroke-dashoffset: 0; stroke-linejoin: miter; stroke-miterlimit: 4; fill: rgb(255,255,255); fill-opacity: 0; fill-rule: nonzero; opacity: 1;"  transform=" translate(0, 0)" d="M -60.10929 0 L 60.10929 0" stroke-linecap="round" />
</g>
</svg>